<svg width="32" height="32" viewBox="0 0 32 32" fill="none" xmlns="http://www.w3.org/2000/svg">
<circle cx="16" cy="16" r="16" fill="white"/>
<path d="M14.4999 20.9999C14.3683 21.0007 14.2379 20.9755 14.116 20.9257C13.9942 20.8759 13.8834 20.8026 13.7899 20.7099C13.6962 20.617 13.6218 20.5064 13.571 20.3845C13.5203 20.2626 13.4941 20.1319 13.4941 19.9999C13.4941 19.8679 13.5203 19.7372 13.571 19.6154C13.6218 19.4935 13.6962 19.3829 13.7899 19.2899L17.0999 15.9999L13.9199 12.6899C13.7337 12.5026 13.6291 12.2491 13.6291 11.9849C13.6291 11.7207 13.7337 11.4673 13.9199 11.2799C14.0129 11.1862 14.1235 11.1118 14.2454 11.061C14.3672 11.0103 14.4979 10.9841 14.6299 10.9841C14.762 10.9841 14.8927 11.0103 15.0145 11.061C15.1364 11.1118 15.247 11.1862 15.3399 11.2799L19.1999 15.2799C19.3832 15.4669 19.4858 15.7182 19.4858 15.9799C19.4858 16.2417 19.3832 16.493 19.1999 16.6799L15.1999 20.6799C15.1102 20.7769 15.0021 20.855 14.882 20.91C14.7618 20.9649 14.632 20.9955 14.4999 20.9999V20.9999Z" fill="#3671E9"/>
</svg>
