<svg width="96" height="64" viewBox="0 0 96 64" fill="none" xmlns="http://www.w3.org/2000/svg">
<rect opacity="0.05" width="96" height="64" rx="8" fill="#E0E0E0"/>
<g clip-path="url(#clip0_114_923)">
<path d="M67.4017 36.8367C64.7295 47.5567 53.8684 54.0732 43.1637 51.4009C32.4434 48.7287 25.9269 37.8681 28.5992 27.1635C31.2714 16.4435 42.1167 9.92698 52.837 12.5993C63.5417 15.2559 70.074 26.1165 67.4017 36.8367Z" fill="#E0E0E0"/>
<path d="M57.5234 29.5081C57.9141 26.8519 55.8984 25.4144 53.1172 24.4612L54.0234 20.8519L51.8359 20.305L50.9609 23.8206C50.3828 23.68 49.7891 23.5394 49.1953 23.4144L50.0703 19.8831L47.8828 19.3362L46.9922 22.93C46.5078 22.8206 46.0391 22.7112 45.5859 22.6019V22.5862L42.5547 21.8362L41.9766 24.18C41.9766 24.18 43.6016 24.555 43.5703 24.5706C44.4609 24.7894 44.6172 25.3831 44.5859 25.8519L43.5547 29.9612C43.6172 29.9769 43.6953 29.9925 43.7891 30.0394C43.7109 30.0237 43.6328 30.0081 43.5547 29.9769L42.1172 35.7269C42.0078 35.9925 41.7266 36.3987 41.1172 36.2425C41.1328 36.2737 39.5234 35.8519 39.5234 35.8519L38.4297 38.3675L41.2891 39.0862C41.8203 39.2269 42.3359 39.3519 42.8516 39.4925L41.9453 43.1331L44.1328 43.68L45.0391 40.0706C45.6328 40.2269 46.2266 40.3831 46.7891 40.5237L45.8984 44.1175L48.0859 44.6644L48.9922 41.0237C52.7422 41.7269 55.5547 41.4456 56.7266 38.055C57.6797 35.3362 56.6797 33.7581 54.7109 32.7269C56.1641 32.3987 57.2422 31.4456 57.5234 29.5081V29.5081ZM52.5078 36.5394C51.8359 39.2581 47.2422 37.7894 45.7578 37.4144L46.9609 32.5862C48.4453 32.9612 53.2266 33.6956 52.5078 36.5394ZM53.1953 29.4612C52.5703 31.9456 48.7578 30.68 47.5234 30.3675L48.6172 25.9925C49.8516 26.305 53.8359 26.8831 53.1953 29.4612Z" fill="#0D0D2B"/>
</g>
<defs>
<clipPath id="clip0_114_923">
<rect width="40" height="40" fill="white" transform="translate(28 12)"/>
</clipPath>
</defs>
</svg>
