<svg width="80" height="80" viewBox="0 0 80 80" fill="none" xmlns="http://www.w3.org/2000/svg">
<circle opacity="0.1" cx="40" cy="40" r="40" fill="white"/>
<path d="M45.9876 25.0453C44.4673 23.4039 42.3438 22.5 40.0001 22.5C37.6438 22.5 35.5134 23.3984 34.0001 25.0297C32.4704 26.6789 31.7251 28.9203 31.9001 31.3406C32.247 36.1156 35.8805 40 40.0001 40C44.1196 40 47.747 36.1164 48.0993 31.3422C48.2767 28.9437 47.5267 26.707 45.9876 25.0453Z" fill="#3671E9"/>
<path d="M53.7495 57.5H26.2495C25.8895 57.5047 25.5331 57.4291 25.206 57.2786C24.879 57.1282 24.5896 56.9068 24.3588 56.6305C23.851 56.0234 23.6463 55.1945 23.7979 54.3562C24.4573 50.6984 26.5151 47.6258 29.7495 45.4687C32.6229 43.5539 36.2628 42.5 39.9995 42.5C43.7362 42.5 47.376 43.5547 50.2495 45.4687C53.4838 47.625 55.5417 50.6977 56.201 54.3555C56.3526 55.1937 56.1479 56.0227 55.6401 56.6297C55.4095 56.9062 55.1201 57.1277 54.793 57.2783C54.466 57.4288 54.1095 57.5046 53.7495 57.5V57.5Z" fill="#3671E9"/>
</svg>
