<svg width="80" height="80" viewBox="0 0 80 80" fill="none" xmlns="http://www.w3.org/2000/svg">
<circle cx="40" cy="40" r="40" fill="#C4C4C4"/>
<g clip-path="url(#clip0_114_1299)">
<path d="M78.8034 49.6732C73.459 71.1132 51.7368 84.1463 30.3275 78.8016C8.88683 73.4573 -4.14629 51.736 1.19839 30.327C6.54277 8.88696 28.2334 -4.14617 49.674 1.19852C71.0834 6.51164 84.1481 28.2329 78.8034 49.6732Z" fill="url(#paint0_linear_114_1299)"/>
<path d="M59.0449 35.0159C59.8262 29.7034 55.7949 26.8284 50.2324 24.9221L52.0449 17.7034L47.6699 16.6096L45.9199 23.6409C44.7637 23.3596 43.5762 23.0784 42.3887 22.8284L44.1387 15.7659L39.7637 14.6721L37.9824 21.8596C37.0137 21.6409 36.0762 21.4221 35.1699 21.2034V21.1721L29.1074 19.6721L27.9512 24.3596C27.9512 24.3596 31.2012 25.1096 31.1387 25.1409C32.9199 25.5784 33.2324 26.7659 33.1699 27.7034L31.1074 35.9221C31.2324 35.9534 31.3887 35.9846 31.5762 36.0784C31.4199 36.0471 31.2637 36.0159 31.1074 35.9534L28.2324 47.4534C28.0137 47.9846 27.4512 48.7971 26.2324 48.4846C26.2637 48.5471 23.0449 47.7034 23.0449 47.7034L20.8574 52.7346L26.5762 54.1721C27.6387 54.4534 28.6699 54.7034 29.7012 54.9846L27.8887 62.2659L32.2637 63.3596L34.0762 56.1409C35.2637 56.4534 36.4512 56.7659 37.5762 57.0471L35.7949 64.2346L40.1699 65.3284L41.9824 58.0471C49.4824 59.4534 55.1074 58.8909 57.4512 52.1096C59.3574 46.6721 57.3574 43.5159 53.4199 41.4534C56.3262 40.7971 58.4824 38.8909 59.0449 35.0159V35.0159ZM49.0137 49.0784C47.6699 54.5159 38.4824 51.5784 35.5137 50.8284L37.9199 41.1721C40.8887 41.9221 50.4512 43.3909 49.0137 49.0784ZM50.3887 34.9221C49.1387 39.8909 41.5137 37.3596 39.0449 36.7346L41.2324 27.9846C43.7012 28.6096 51.6699 29.7659 50.3887 34.9221Z" fill="white"/>
</g>
<defs>
<linearGradient id="paint0_linear_114_1299" x1="39.9784" y1="-0.0190779" x2="39.9784" y2="79.992" gradientUnits="userSpaceOnUse">
<stop stop-color="#F9AA4B"/>
<stop offset="1" stop-color="#F7931A"/>
</linearGradient>
<clipPath id="clip0_114_1299">
<rect width="80" height="80" fill="white"/>
</clipPath>
</defs>
</svg>
