<svg width="96" height="64" viewBox="0 0 96 64" fill="none" xmlns="http://www.w3.org/2000/svg">
<rect opacity="0.05" width="96" height="64" rx="8" fill="#E0E0E0"/>
<path d="M41.4932 20.2274H54.4588V43.9537H41.4932V20.2274Z" fill="#BDBDBD"/>
<path d="M42.3167 32.091C42.3167 27.2703 44.5393 22.9945 47.9556 20.2277C45.4449 18.2156 42.2756 17 38.8181 17C30.6268 17 24 23.7489 24 32.091C24 40.4328 30.6268 47.1819 38.8179 47.1819C42.2754 47.1819 45.4448 45.9663 47.9556 43.954C44.5393 41.2293 42.3167 36.9116 42.3167 32.091V32.091Z" fill="#828282"/>
<path d="M71.9526 32.091C71.9526 40.4328 65.3258 47.1819 57.1347 47.1819C53.6772 47.1819 50.5079 45.9663 47.9971 43.954C51.4546 41.1875 53.6361 36.9116 53.6361 32.091C53.6361 27.2703 51.4133 22.9945 47.9971 20.2277C50.5077 18.2156 53.6772 17 57.1347 17C65.3258 17 71.9528 23.7909 71.9528 32.091H71.9526Z" fill="#E0E0E0"/>
</svg>
